<?xml version="1.0" standalone="no"?>
<!DOCTYPE svg PUBLIC "-//W3C//DTD SVG 20010904//EN"
 "http://www.w3.org/TR/2001/REC-SVG-20010904/DTD/svg10.dtd">
<svg version="1.0" xmlns="http://www.w3.org/2000/svg"
 width="58.000000pt" height="65.000000pt" viewBox="0 0 58.000000 65.000000"
 preserveAspectRatio="xMidYMid meet">
<metadata>
Created by potrace 1.10, written by Peter Selinger 2001-2011
</metadata>
<g transform="translate(0.000000,65.000000) scale(0.100000,-0.100000)"
fill="#000000" stroke="none">
<path d="M188 531 c-22 -22 -23 -31 -3 -31 8 0 15 -4 15 -10 0 -5 -7 -10 -15
-10 -20 0 -19 -17 1 -28 15 -8 15 -10 0 -15 -20 -8 -21 -27 -1 -27 11 0 15
-12 15 -49 0 -47 -2 -50 -27 -53 -27 -3 -28 -5 -31 -77 -4 -88 10 -111 68
-111 56 0 70 22 70 113 0 77 -3 82 -37 78 -9 -1 -13 14 -13 48 0 30 5 51 13
55 9 3 7 9 -6 19 -18 15 -18 16 0 26 16 9 16 12 3 21 -13 9 -13 11 0 19 12 8
12 13 -4 30 -23 25 -26 25 -48 2z m60 -313 l-3 -63 -35 0 -35 0 -3 63 -3 62
41 0 41 0 -3 -62z"/>
<path d="M360 456 c0 -19 -4 -38 -10 -41 -12 -7 -13 -254 -2 -273 12 -18 75
-26 101 -13 20 11 21 19 21 146 0 78 -4 136 -10 140 -5 3 -10 22 -10 41 0 34
0 34 -45 34 -45 0 -45 0 -45 -34z m60 -16 c0 -11 -7 -20 -15 -20 -8 0 -15 9
-15 20 0 11 7 20 15 20 8 0 15 -9 15 -20z m18 -167 l-3 -118 -30 0 -30 0 -3
118 -3 117 36 0 36 0 -3 -117z"/>
</g>
</svg>
