<svg width="160" height="31" viewBox="0 0 160 31" fill="none" xmlns="http://www.w3.org/2000/svg">
<g clip-path="url(#clip0_8716_42989)">
<path d="M0 29.3022C5.30212 29.3022 9.60029 25.0039 9.60029 19.7019C9.60029 14.3998 5.30212 10.1016 0 10.1016V16.8217C1.59062 16.8217 2.88007 18.1112 2.88007 19.7019C2.88007 21.2925 1.59062 22.582 0 22.582V29.3022Z" fill="#67696E"/>
<path d="M32.001 13.2991C30.3604 12.7794 28.6134 12.499 26.8008 12.499C17.3012 12.499 9.60031 20.2 9.60031 29.6996C9.60031 30.6531 9.6779 31.5885 9.82707 32.4997H20.5143C20.1328 31.6443 19.9207 30.6968 19.9207 29.6996C19.9207 25.8998 23.001 22.8193 26.8008 22.8193C28.8776 22.8193 30.7395 23.7395 32.001 25.1944V13.2991Z" fill="#67696E"/>
<path d="M1.68787 0.5C2.4838 7.70015 8.58814 13.3004 16.0005 13.3004C23.4127 13.3004 29.5171 7.70015 30.3129 0.5H20.0145C19.3787 2.09383 17.8211 3.22008 16.0005 3.22008C14.1797 3.22008 12.6222 2.09383 11.9863 0.5H1.68787Z" fill="#67696E"/>
<path d="M43.1382 7.00311H48.4989C49.9486 7.00311 51.0612 7.1169 51.8367 7.34447C52.6205 7.57205 53.2063 7.90077 53.5941 8.33063C53.9902 8.7605 54.2557 9.28308 54.3906 9.89838C54.5339 10.5052 54.6055 11.4493 54.6055 12.7304V14.5131C54.6055 15.8196 54.4706 16.772 54.2009 17.3704C53.9312 17.9689 53.4339 18.4282 52.709 18.7485C51.9926 19.0688 51.0528 19.229 49.8896 19.229H48.461V27.4723H43.1382V7.00311ZM48.461 10.5052V15.7142C48.6127 15.7226 48.7433 15.7268 48.8529 15.7268C49.3418 15.7268 49.6789 15.6088 49.8643 15.3728C50.0582 15.1284 50.1551 14.6269 50.1551 13.8683V12.1868C50.1551 11.4872 50.0456 11.032 49.8264 10.8213C49.6073 10.6106 49.1521 10.5052 48.461 10.5052Z" fill="#67696E"/>
<path d="M64.6694 7.00311L67.7164 27.4723H62.2672L62.0017 23.7931H60.0926L59.7765 27.4723H54.2641L56.9698 7.00311H64.6694ZM61.85 20.1646C61.5803 17.8467 61.3106 14.9851 61.0408 11.5799C60.5014 15.4908 60.1642 18.3524 60.0294 20.1646H61.85Z" fill="#67696E"/>
<path d="M80.5112 7.00311V27.4723H75.8459L73.0771 18.167V27.4723H68.6267V7.00311H73.0771L76.0608 16.2199V7.00311H80.5112Z" fill="#67696E"/>
<path d="M91.852 7.00311L94.899 27.4723H89.4499L89.1844 23.7931H87.2752L86.9592 27.4723H81.4468L84.1524 7.00311H91.852ZM89.0326 20.1646C88.7629 17.8467 88.4932 14.9851 88.2235 11.5799C87.684 15.4908 87.3469 18.3524 87.212 20.1646H89.0326Z" fill="#67696E"/>
<path d="M95.8093 7.00311H99.7919C102.363 7.00311 104.099 7.12111 105.001 7.35711C105.911 7.59312 106.602 7.98084 107.074 8.52028C107.546 9.05972 107.841 9.66237 107.959 10.3282C108.077 10.9857 108.136 12.2837 108.136 14.2223V21.3909C108.136 23.2284 108.048 24.459 107.871 25.0827C107.702 25.698 107.403 26.1827 106.973 26.5367C106.543 26.8823 106.012 27.1267 105.38 27.27C104.748 27.4048 103.796 27.4723 102.523 27.4723H95.8093V7.00311ZM101.132 10.5052V23.9701C101.899 23.9701 102.371 23.8184 102.548 23.515C102.725 23.2031 102.814 22.3645 102.814 20.999V13.0465C102.814 12.1193 102.784 11.5251 102.725 11.2638C102.666 11.0025 102.531 10.8129 102.321 10.6949C102.11 10.5685 101.714 10.5052 101.132 10.5052Z" fill="#67696E"/>
<path d="M122.284 18.9888C122.284 21.0454 122.233 22.5035 122.132 23.3633C122.04 24.2146 121.736 24.9942 121.222 25.7022C120.716 26.4103 120.029 26.9539 119.161 27.3332C118.293 27.7125 117.282 27.9021 116.127 27.9021C115.031 27.9021 114.045 27.7251 113.168 27.3711C112.3 27.0087 111.601 26.4693 111.07 25.7528C110.539 25.0364 110.222 24.2567 110.121 23.4138C110.02 22.571 109.97 21.0959 109.97 18.9888V15.4866C109.97 13.43 110.016 11.9761 110.109 11.1248C110.21 10.265 110.513 9.48115 111.019 8.77314C111.533 8.06513 112.224 7.52147 113.092 7.14218C113.961 6.76289 114.972 6.57324 116.127 6.57324C117.223 6.57324 118.204 6.75446 119.073 7.1169C119.949 7.4709 120.653 8.00613 121.184 8.72257C121.715 9.43901 122.031 10.2187 122.132 11.0615C122.233 11.9044 122.284 13.3794 122.284 15.4866V18.9888ZM116.961 12.2626C116.961 11.3102 116.906 10.7033 116.797 10.442C116.696 10.1723 116.481 10.0374 116.152 10.0374C115.874 10.0374 115.659 10.147 115.507 10.3662C115.364 10.5769 115.292 11.209 115.292 12.2626V21.8208C115.292 23.0093 115.339 23.7426 115.431 24.0207C115.533 24.2989 115.76 24.4379 116.114 24.4379C116.477 24.4379 116.708 24.2778 116.81 23.9575C116.911 23.6372 116.961 22.8744 116.961 21.6691V12.2626Z" fill="#67696E"/>
<path d="M135.066 7.00311L133.208 16.0556L136.014 27.4723H131.084C130.494 25.4325 129.954 22.9503 129.465 20.0255C129.33 21.3151 129.145 22.6848 128.909 24.1345L128.403 27.4723H123.22L125.141 16.0556L123.22 7.00311H128.365C128.458 7.56783 128.643 8.50764 128.922 9.82252C129.141 10.8255 129.322 11.7443 129.465 12.5787L130.603 7.00311H135.066Z" fill="#67696E"/>
<path d="M148.657 7.00311V27.4723H143.992L141.223 18.167V27.4723H136.773V7.00311H141.223L144.207 16.2199V7.00311H148.657Z" fill="#67696E"/>
</g>
<defs>
<clipPath id="clip0_8716_42989">
<rect width="160" height="30" fill="white" transform="translate(0 0.5)"/>
</clipPath>
</defs>
</svg>
