<svg width="116" height="33" viewBox="0 0 116 33" fill="none" xmlns="http://www.w3.org/2000/svg">
<path fill-rule="evenodd" clip-rule="evenodd" d="M6.94375 3.17322C5.79922 3.9735 4.76426 4.91971 3.86582 5.98484C7.53726 5.64399 12.2017 6.20056 17.6171 8.90827C23.3999 11.7996 28.0566 11.8974 31.2974 11.2723C31.0033 10.3819 30.6331 9.52627 30.1946 8.71283C26.4847 9.10411 21.7287 8.58619 16.186 5.81491C12.6663 4.05506 9.56378 3.33013 6.94375 3.17322ZM28.0275 5.62824C25.0978 2.35492 20.8403 0.294922 16.1015 0.294922C14.7099 0.294922 13.3597 0.472608 12.0725 0.806506C13.8159 1.28219 15.6679 1.97811 17.6171 2.95274C21.6751 4.98175 25.1787 5.63505 28.0275 5.62824ZM31.9903 14.3974C28.0751 15.1705 22.6686 15.0117 16.186 11.7704C10.1255 8.74019 5.30191 8.77835 2.04868 9.50131C1.88076 9.53859 1.7168 9.57779 1.55679 9.61859C1.13086 10.5449 0.79087 11.519 0.546924 12.5305C0.807472 12.4609 1.07671 12.3948 1.35449 12.333C5.30122 11.4559 10.8776 11.494 17.6171 14.8638C23.6776 17.894 28.5012 17.8559 31.7545 17.1329C31.866 17.1082 31.9758 17.0826 32.0838 17.0562C32.0956 16.804 32.1016 16.5501 32.1016 16.2949C32.1016 15.6529 32.0638 15.0197 31.9903 14.3974ZM31.5614 20.4328C27.6842 21.1106 22.4351 20.8504 16.186 17.726C10.1255 14.6957 5.30191 14.7339 2.04868 15.4568C1.32656 15.6172 0.676954 15.8127 0.103907 16.019C0.102344 16.1108 0.101562 16.2028 0.101562 16.2949C0.101562 25.1315 7.265 32.2949 16.1015 32.2949C23.5072 32.2949 29.7378 27.2636 31.5614 20.4328Z" fill="#67696E"/>
<path d="M48.9096 24.2902C48.0008 24.2902 47.156 24.1238 46.3752 23.791C45.6072 23.4582 44.9416 22.9974 44.3784 22.4086C43.828 21.807 43.4248 21.1094 43.1688 20.3158L45.3384 19.375C45.684 20.1942 46.1832 20.8406 46.836 21.3142C47.4888 21.775 48.2248 22.0054 49.044 22.0054C49.5048 22.0054 49.9016 21.935 50.2344 21.7942C50.58 21.6406 50.8424 21.4358 51.0216 21.1798C51.2136 20.9238 51.3096 20.6166 51.3096 20.2582C51.3096 19.8358 51.1816 19.4902 50.9256 19.2214C50.6824 18.9398 50.3112 18.7222 49.812 18.5686L47.0664 17.6854C45.9528 17.3398 45.1144 16.8214 44.5512 16.1302C43.988 15.439 43.7064 14.6262 43.7064 13.6918C43.7064 12.8726 43.9048 12.1494 44.3016 11.5222C44.7112 10.895 45.2744 10.4086 45.9912 10.063C46.7208 9.70459 47.5528 9.52539 48.4872 9.52539C49.3448 9.52539 50.132 9.67899 50.8488 9.98619C51.5656 10.2806 52.18 10.6966 52.692 11.2342C53.2168 11.759 53.6072 12.3798 53.8632 13.0966L51.7128 14.0566C51.4312 13.3398 51.0088 12.7894 50.4456 12.4054C49.8824 12.0086 49.2296 11.8102 48.4872 11.8102C48.052 11.8102 47.668 11.887 47.3352 12.0406C47.0024 12.1814 46.74 12.3862 46.548 12.655C46.3688 12.911 46.2792 13.2182 46.2792 13.5766C46.2792 13.9734 46.4072 14.3254 46.6632 14.6326C46.9192 14.927 47.3096 15.1574 47.8344 15.3238L50.4648 16.1494C51.604 16.5206 52.4552 17.0326 53.0184 17.6854C53.5944 18.3382 53.8824 19.1446 53.8824 20.1046C53.8824 20.9238 53.6712 21.647 53.2488 22.2742C52.8264 22.9014 52.244 23.3942 51.5016 23.7526C50.7592 24.111 49.8952 24.2902 48.9096 24.2902Z" fill="#67696E"/>
<path d="M56.0224 24.0598V9.52539H58.5376V15.6694L58.192 15.3046C58.4352 14.6774 58.832 14.2038 59.3824 13.8838C59.9456 13.551 60.5984 13.3846 61.3408 13.3846C62.1088 13.3846 62.7872 13.551 63.376 13.8838C63.9776 14.2166 64.4448 14.6838 64.7776 15.2854C65.1104 15.8742 65.2768 16.559 65.2768 17.3398V24.0598H62.7616V17.935C62.7616 17.4742 62.672 17.0774 62.4928 16.7446C62.3136 16.4118 62.064 16.1558 61.744 15.9766C61.4368 15.7846 61.072 15.6886 60.6496 15.6886C60.24 15.6886 59.8752 15.7846 59.5552 15.9766C59.2352 16.1558 58.9856 16.4118 58.8064 16.7446C58.6272 17.0774 58.5376 17.4742 58.5376 17.935V24.0598H56.0224Z" fill="#67696E"/>
<path d="M70.5717 24.2902C69.8421 24.2902 69.2085 24.1686 68.6709 23.9254C68.1333 23.6822 67.7173 23.3366 67.4229 22.8886C67.1285 22.4278 66.9813 21.8966 66.9813 21.295C66.9813 20.719 67.1093 20.207 67.3653 19.759C67.6213 19.2982 68.0181 18.9142 68.5557 18.607C69.0933 18.2998 69.7717 18.0822 70.5909 17.9542L74.0085 17.3974V19.3174L71.0709 19.8166C70.5717 19.9062 70.2005 20.0662 69.9573 20.2966C69.7141 20.527 69.5925 20.8278 69.5925 21.199C69.5925 21.5574 69.7269 21.8454 69.9957 22.063C70.2773 22.2678 70.6229 22.3702 71.0325 22.3702C71.5573 22.3702 72.0181 22.2614 72.4149 22.0438C72.8245 21.8134 73.1381 21.4998 73.3557 21.103C73.5861 20.7062 73.7013 20.271 73.7013 19.7974V17.1094C73.7013 16.6614 73.5221 16.2902 73.1637 15.9958C72.8181 15.6886 72.3573 15.535 71.7813 15.535C71.2437 15.535 70.7637 15.6822 70.3413 15.9766C69.9317 16.2582 69.6309 16.6358 69.4389 17.1094L67.3845 16.111C67.5893 15.5606 67.9093 15.087 68.3445 14.6902C68.7925 14.2806 69.3173 13.9606 69.9189 13.7302C70.5205 13.4998 71.1733 13.3846 71.8773 13.3846C72.7349 13.3846 73.4901 13.5446 74.1429 13.8646C74.7957 14.1718 75.3013 14.607 75.6597 15.1702C76.0309 15.7206 76.2165 16.367 76.2165 17.1094V24.0598H73.8357V22.2742L74.3733 22.2358C74.1045 22.6838 73.7845 23.0614 73.4133 23.3686C73.0421 23.663 72.6197 23.8934 72.1461 24.0598C71.6725 24.2134 71.1477 24.2902 70.5717 24.2902Z" fill="#67696E"/>
<path d="M78.5412 24.0598V13.615H80.9028V15.6694L80.7108 15.3046C80.954 14.6774 81.3508 14.2038 81.9012 13.8838C82.4644 13.551 83.1172 13.3846 83.8596 13.3846C84.6276 13.3846 85.306 13.551 85.8948 13.8838C86.4964 14.2166 86.9636 14.6838 87.2964 15.2854C87.6292 15.8742 87.7956 16.559 87.7956 17.3398V24.0598H85.2804V17.935C85.2804 17.4742 85.1908 17.0774 85.0116 16.7446C84.8324 16.4118 84.5828 16.1558 84.2628 15.9766C83.9556 15.7846 83.5908 15.6886 83.1684 15.6886C82.7588 15.6886 82.394 15.7846 82.074 15.9766C81.754 16.1558 81.5044 16.4118 81.3252 16.7446C81.146 17.0774 81.0564 17.4742 81.0564 17.935V24.0598H78.5412Z" fill="#67696E"/>
<path d="M94.9913 28.2838C94.2105 28.2838 93.4872 28.1558 92.8216 27.8998C92.156 27.6438 91.58 27.2854 91.0936 26.8246C90.62 26.3766 90.2744 25.8454 90.0568 25.231L92.3992 24.3478C92.5528 24.8342 92.8536 25.2246 93.3016 25.519C93.7624 25.8262 94.3257 25.9798 94.9913 25.9798C95.5033 25.9798 95.9513 25.8838 96.3353 25.6918C96.7321 25.4998 97.0393 25.2182 97.2569 24.847C97.4745 24.4886 97.5833 24.0534 97.5833 23.5414V21.1606L98.0633 21.7366C97.7049 22.3638 97.2249 22.8374 96.6233 23.1574C96.0217 23.4774 95.3369 23.6374 94.5689 23.6374C93.5961 23.6374 92.7256 23.4134 91.9576 22.9654C91.1896 22.5174 90.588 21.903 90.1528 21.1222C89.7176 20.3414 89.5 19.4646 89.5 18.4918C89.5 17.5062 89.7176 16.6294 90.1528 15.8614C90.588 15.0934 91.1832 14.4918 91.9384 14.0566C92.6936 13.6086 93.5512 13.3846 94.5112 13.3846C95.292 13.3846 95.9768 13.551 96.5657 13.8838C97.1673 14.2038 97.6665 14.671 98.0633 15.2854L97.7177 15.919V13.615H100.098V23.5414C100.098 24.4502 99.8745 25.263 99.4265 25.9798C98.9913 26.6966 98.3897 27.2598 97.6217 27.6694C96.8665 28.079 95.9897 28.2838 94.9913 28.2838ZM94.876 21.3142C95.4137 21.3142 95.8808 21.199 96.2776 20.9686C96.6872 20.7254 97.0073 20.3926 97.2377 19.9702C97.4681 19.5478 97.5833 19.0614 97.5833 18.511C97.5833 17.9734 97.4617 17.4934 97.2185 17.071C96.9881 16.6358 96.6681 16.2966 96.2585 16.0534C95.8617 15.8102 95.4008 15.6886 94.876 15.6886C94.3512 15.6886 93.8776 15.8102 93.4552 16.0534C93.0328 16.2966 92.7 16.6358 92.4568 17.071C92.2264 17.4934 92.1112 17.9734 92.1112 18.511C92.1112 19.0486 92.2264 19.5286 92.4568 19.951C92.7 20.3734 93.0264 20.7062 93.436 20.9494C93.8584 21.1926 94.3384 21.3142 94.876 21.3142Z" fill="#67696E"/>
<path d="M101.507 24.0598L105.155 18.8182L101.487 13.615H104.444L107.305 17.839H105.98L108.841 13.615H111.779L108.131 18.8182L111.759 24.0598H108.822L105.999 19.855H107.286L104.463 24.0598H101.507Z" fill="#67696E"/>
<path d="M113.154 24.0598V13.615H115.669V24.0598H113.154ZM113.154 12.4438V9.75579H115.669V12.4438H113.154Z" fill="#67696E"/>
</svg>
