<svg width="141" height="34" viewBox="0 0 141 34" fill="none" xmlns="http://www.w3.org/2000/svg">
<path d="M15.4992 0.00195312H36.5808L21.0816 22.9749H0L15.4992 0.00195312Z" fill="#67696E"/>
<path d="M16.4231 25.1061L10.4199 34.0042H32.5015L48.0007 11.0312H31.7031L22.2071 25.1061H16.4231Z" fill="#67696E"/>
<path d="M66.4688 22.4805L65.9883 25.2227H57.6328L58.1133 22.4805H66.4688ZM61.7227 8.16016L58.7578 25.2227H55.3242L58.2773 8.16016H61.7227Z" fill="#67696E"/>
<path d="M80.7539 15.1094L80.2734 17.8516H71.6133L72.0938 15.1094H80.7539ZM74.332 8.16016L71.3672 25.2227H67.9336L70.8867 8.16016H74.332ZM84.3867 8.16016L81.4219 25.2227H78.0117L80.9648 8.16016H84.3867Z" fill="#67696E"/>
<path d="M84.6328 23.6523C84.625 23.1211 84.8008 22.6836 85.1602 22.3398C85.5273 21.9961 85.9727 21.8242 86.4961 21.8242C86.9961 21.8164 87.4258 21.9727 87.7852 22.293C88.1523 22.6055 88.3398 23.0195 88.3477 23.5352C88.3555 24.0664 88.1758 24.5039 87.8086 24.8477C87.4492 25.1914 87.0078 25.3633 86.4844 25.3633C85.9844 25.3711 85.5508 25.2188 85.1836 24.9062C84.8242 24.5859 84.6406 24.168 84.6328 23.6523Z" fill="#67696E"/>
<path d="M101.52 8.16016L98.5664 25.2227H95.1328L98.0977 8.16016H101.52ZM106.605 8.16016L106.125 10.9141H92.6133L93.0938 8.16016H106.605Z" fill="#67696E"/>
<path d="M110.227 25.457C109.359 25.4414 108.578 25.2773 107.883 24.9648C107.188 24.6445 106.605 24.207 106.137 23.6523C105.676 23.0977 105.336 22.4531 105.117 21.7188C104.898 20.9844 104.82 20.1953 104.883 19.3516L104.93 18.8711C105.023 17.9883 105.238 17.1484 105.574 16.3516C105.91 15.5547 106.359 14.8516 106.922 14.2422C107.484 13.625 108.148 13.1445 108.914 12.8008C109.688 12.4492 110.547 12.2852 111.492 12.3086C112.375 12.3242 113.129 12.5039 113.754 12.8477C114.379 13.1914 114.883 13.6523 115.266 14.2305C115.648 14.8086 115.91 15.4688 116.051 16.2109C116.191 16.9453 116.219 17.7148 116.133 18.5195L115.945 19.9258H106.148L106.512 17.6758L112.98 17.6875L113.039 17.3945C113.102 16.9648 113.082 16.5664 112.98 16.1992C112.879 15.8242 112.688 15.5234 112.406 15.2969C112.125 15.0703 111.75 14.9492 111.281 14.9336C110.742 14.918 110.289 15.0312 109.922 15.2734C109.555 15.5156 109.254 15.8359 109.02 16.2344C108.785 16.6328 108.605 17.0664 108.48 17.5352C108.355 17.9961 108.266 18.4414 108.211 18.8711L108.164 19.3398C108.125 19.7539 108.137 20.168 108.199 20.582C108.262 20.9883 108.383 21.3555 108.562 21.6836C108.75 22.0117 109.004 22.2773 109.324 22.4805C109.652 22.6836 110.062 22.793 110.555 22.8086C111.18 22.8242 111.754 22.7031 112.277 22.4453C112.809 22.1797 113.285 21.8281 113.707 21.3906L115.184 23.1719C114.832 23.7031 114.383 24.1406 113.836 24.4844C113.297 24.8203 112.715 25.0664 112.09 25.2227C111.465 25.3867 110.844 25.4648 110.227 25.457Z" fill="#67696E"/>
<path d="M122.414 22.832C122.828 22.8398 123.195 22.7617 123.516 22.5977C123.844 22.4336 124.113 22.2031 124.324 21.9062C124.535 21.6094 124.676 21.2656 124.746 20.875L127.852 20.8633C127.781 21.8086 127.477 22.6289 126.938 23.3242C126.406 24.0195 125.73 24.5547 124.91 24.9297C124.098 25.3047 123.234 25.4805 122.32 25.457C121.406 25.4414 120.621 25.2578 119.965 24.9062C119.316 24.5547 118.793 24.0859 118.395 23.5C117.996 22.9062 117.715 22.2305 117.551 21.4727C117.395 20.7148 117.355 19.918 117.434 19.082L117.469 18.7305C117.562 17.8555 117.773 17.0273 118.102 16.2461C118.43 15.457 118.867 14.7656 119.414 14.1719C119.969 13.5703 120.621 13.1055 121.371 12.7773C122.121 12.4414 122.969 12.2852 123.914 12.3086C124.891 12.3242 125.727 12.5469 126.422 12.9766C127.117 13.3984 127.645 13.9766 128.004 14.7109C128.371 15.4453 128.547 16.2891 128.531 17.2422L125.438 17.2305C125.445 16.8477 125.395 16.4844 125.285 16.1406C125.176 15.7891 124.988 15.5078 124.723 15.2969C124.465 15.0781 124.113 14.957 123.668 14.9336C123.145 14.918 122.707 15.0273 122.355 15.2617C122.004 15.4883 121.719 15.7969 121.5 16.1875C121.281 16.5703 121.113 16.9883 120.996 17.4414C120.879 17.8867 120.797 18.3203 120.75 18.7422L120.727 19.082C120.688 19.4336 120.664 19.8242 120.656 20.2539C120.648 20.6758 120.691 21.082 120.785 21.4727C120.879 21.8555 121.051 22.1758 121.301 22.4336C121.559 22.6836 121.93 22.8164 122.414 22.832Z" fill="#67696E"/>
<path d="M135.34 7.22266L132.211 25.2227H128.918L132.047 7.22266H135.34ZM132.949 18.4375L132.094 18.4492C132.18 17.7305 132.348 17.0039 132.598 16.2695C132.855 15.5352 133.203 14.8672 133.641 14.2656C134.078 13.6562 134.613 13.1719 135.246 12.8125C135.887 12.4453 136.629 12.2734 137.473 12.2969C138.184 12.3125 138.773 12.457 139.242 12.7305C139.719 12.9961 140.09 13.3594 140.355 13.8203C140.621 14.2734 140.797 14.793 140.883 15.3789C140.969 15.957 140.977 16.5664 140.906 17.207L139.57 25.2227H136.254L137.613 17.1719C137.66 16.7578 137.648 16.3867 137.578 16.0586C137.516 15.7227 137.363 15.457 137.121 15.2617C136.887 15.0586 136.539 14.9531 136.078 14.9453C135.57 14.9297 135.133 15.0195 134.766 15.2148C134.406 15.4102 134.102 15.6797 133.852 16.0234C133.602 16.3594 133.406 16.7383 133.266 17.1602C133.125 17.5742 133.02 18 132.949 18.4375Z" fill="#67696E"/>
</svg>
