<svg width="138" height="31" viewBox="0 0 138 31" fill="none" xmlns="http://www.w3.org/2000/svg">
<path d="M30.1595 10.11C30.1596 8.11967 29.5586 6.17573 28.4352 4.53279C27.3118 2.88985 25.7183 1.6245 23.8636 0.9025C22.0089 0.18049 19.9793 0.0354902 18.0408 0.48648C16.1022 0.93747 14.3451 1.96343 12.9995 3.42997H0.519531V29.77H26.8695V17.46C27.9037 16.535 28.7313 15.4023 29.2982 14.1358C29.8651 12.8693 30.1586 11.4976 30.1595 10.11ZM25.0895 10.11C25.0915 11.0637 24.8105 11.9966 24.2821 12.7906C23.7536 13.5845 23.0016 14.2039 22.121 14.5702C21.2404 14.9366 20.271 15.0335 19.3353 14.8486C18.3997 14.6638 17.5399 14.2055 16.8648 13.5318C16.1897 12.8581 15.7297 11.9993 15.5429 11.064C15.3561 10.1288 15.451 9.15907 15.8155 8.27777C16.18 7.39643 16.7978 6.64306 17.5906 6.11299C18.3835 5.58292 19.3158 5.29998 20.2695 5.29997C21.5461 5.29997 22.7706 5.80642 23.6742 6.70818C24.5779 7.60994 25.0869 8.83337 25.0895 10.11ZM21.7995 24.7H5.58953V8.49997H10.5295C10.4341 9.03147 10.3839 9.57007 10.3795 10.11C10.3822 12.7322 11.425 15.2462 13.2792 17.1004C15.1333 18.9545 17.6473 19.9974 20.2695 20C20.7822 19.9973 21.2938 19.9538 21.7995 19.87V24.7Z" fill="#67696E"/>
<path d="M39.8957 24.9981V9.99808H35.2637V7.11808H47.7437V9.99808H43.1837V24.9981H39.8957Z" fill="#67696E"/>
<path d="M50.0945 30.3021C49.7425 30.3021 49.3985 30.2701 49.0625 30.2061C48.7265 30.1581 48.4225 30.0701 48.1505 29.9421V27.3021C48.3585 27.3501 48.6065 27.3981 48.8945 27.4461C49.1985 27.4941 49.4785 27.5181 49.7345 27.5181C50.4545 27.5181 50.9745 27.3501 51.2945 27.0141C51.6305 26.6781 51.9265 26.2381 52.1825 25.6941L53.0465 23.6781L52.9985 26.3181L47.3105 11.9421H50.6945L54.6785 22.5501H53.4785L57.4385 11.9421H60.8465L55.1585 26.3181C54.8225 27.1661 54.4145 27.8861 53.9345 28.4781C53.4545 29.0701 52.8945 29.5181 52.2545 29.8221C51.6305 30.1421 50.9105 30.3021 50.0945 30.3021Z" fill="#67696E"/>
<path d="M66.0643 25.2861C65.1523 25.2861 64.3603 25.1341 63.6883 24.8301C63.0163 24.5261 62.4963 24.0941 62.1283 23.5341C61.7603 22.9581 61.5763 22.2941 61.5763 21.5421C61.5763 20.8221 61.7363 20.1821 62.0563 19.6221C62.3763 19.0461 62.8723 18.5661 63.5443 18.1821C64.2163 17.7981 65.0643 17.5261 66.0883 17.3661L70.3603 16.6701V19.0701L66.6883 19.6941C66.0643 19.8061 65.6003 20.0061 65.2963 20.2941C64.9923 20.5821 64.8403 20.9581 64.8403 21.4221C64.8403 21.8701 65.0083 22.2301 65.3443 22.5021C65.6963 22.7581 66.1283 22.8861 66.6403 22.8861C67.2963 22.8861 67.8723 22.7501 68.3683 22.4781C68.8803 22.1901 69.2723 21.7981 69.5443 21.3021C69.8323 20.8061 69.9763 20.2621 69.9763 19.6701V16.3101C69.9763 15.7501 69.7523 15.2861 69.3043 14.9181C68.8723 14.5341 68.2963 14.3421 67.5763 14.3421C66.9043 14.3421 66.3043 14.5261 65.7763 14.8941C65.2643 15.2461 64.8883 15.7181 64.6483 16.3101L62.0803 15.0621C62.3363 14.3741 62.7363 13.7821 63.2803 13.2861C63.8403 12.7741 64.4963 12.3741 65.2483 12.0861C66.0003 11.7981 66.8163 11.6541 67.6963 11.6541C68.7683 11.6541 69.7123 11.8541 70.5283 12.2541C71.3443 12.6381 71.9763 13.1821 72.4243 13.8861C72.8883 14.5741 73.1203 15.3821 73.1203 16.3101V24.9981H70.1443V22.7661L70.8163 22.7181C70.4803 23.2781 70.0803 23.7501 69.6163 24.1341C69.1523 24.5021 68.6243 24.7901 68.0323 24.9981C67.4403 25.1901 66.7843 25.2861 66.0643 25.2861Z" fill="#67696E"/>
<path d="M79.9862 25.2861C79.0742 25.2861 78.2822 25.1341 77.6102 24.8301C76.9382 24.5261 76.4182 24.0941 76.0502 23.5341C75.6822 22.9581 75.4982 22.2941 75.4982 21.5421C75.4982 20.8221 75.6582 20.1821 75.9782 19.6221C76.2982 19.0461 76.7942 18.5661 77.4662 18.1821C78.1382 17.7981 78.9862 17.5261 80.0102 17.3661L84.2822 16.6701V19.0701L80.6102 19.6941C79.9862 19.8061 79.5222 20.0061 79.2182 20.2941C78.9142 20.5821 78.7622 20.9581 78.7622 21.4221C78.7622 21.8701 78.9302 22.2301 79.2662 22.5021C79.6182 22.7581 80.0502 22.8861 80.5622 22.8861C81.2182 22.8861 81.7942 22.7501 82.2902 22.4781C82.8022 22.1901 83.1942 21.7981 83.4662 21.3021C83.7542 20.8061 83.8982 20.2621 83.8982 19.6701V16.3101C83.8982 15.7501 83.6742 15.2861 83.2262 14.9181C82.7942 14.5341 82.2182 14.3421 81.4982 14.3421C80.8262 14.3421 80.2262 14.5261 79.6982 14.8941C79.1862 15.2461 78.8102 15.7181 78.5702 16.3101L76.0022 15.0621C76.2582 14.3741 76.6582 13.7821 77.2022 13.2861C77.7622 12.7741 78.4182 12.3741 79.1702 12.0861C79.9222 11.7981 80.7382 11.6541 81.6182 11.6541C82.6902 11.6541 83.6342 11.8541 84.4502 12.2541C85.2662 12.6381 85.8982 13.1821 86.3462 13.8861C86.8102 14.5741 87.0422 15.3821 87.0422 16.3101V24.9981H84.0662V22.7661L84.7382 22.7181C84.4022 23.2781 84.0022 23.7501 83.5382 24.1341C83.0742 24.5021 82.5462 24.7901 81.9542 24.9981C81.3622 25.1901 80.7062 25.2861 79.9862 25.2861Z" fill="#67696E"/>
<path d="M89.948 24.9981V6.83008H93.092V24.9981H89.948Z" fill="#67696E"/>
<path d="M95.9949 29.7981V11.9421H98.9469V14.5341L98.6589 13.8861C99.1069 13.1821 99.7149 12.6381 100.483 12.2541C101.251 11.8541 102.139 11.6541 103.147 11.6541C104.379 11.6541 105.491 11.9581 106.483 12.5661C107.475 13.1741 108.259 13.9901 108.835 15.0141C109.427 16.0381 109.723 17.1901 109.723 18.4701C109.723 19.7341 109.435 20.8861 108.859 21.9261C108.283 22.9661 107.499 23.7901 106.507 24.3981C105.515 24.9901 104.387 25.2861 103.123 25.2861C102.179 25.2861 101.307 25.1021 100.507 24.7341C99.7229 24.3501 99.0989 23.8061 98.6349 23.1021L99.1389 22.4781V29.7981H95.9949ZM102.763 22.4061C103.483 22.4061 104.123 22.2381 104.683 21.9021C105.243 21.5661 105.675 21.1021 105.979 20.5101C106.299 19.9181 106.459 19.2381 106.459 18.4701C106.459 17.7021 106.299 17.0301 105.979 16.4541C105.675 15.8621 105.243 15.3981 104.683 15.0621C104.123 14.7101 103.483 14.5341 102.763 14.5341C102.075 14.5341 101.451 14.7021 100.891 15.0381C100.347 15.3741 99.9149 15.8461 99.5949 16.4541C99.2909 17.0461 99.1389 17.7181 99.1389 18.4701C99.1389 19.2381 99.2909 19.9181 99.5949 20.5101C99.9149 21.1021 100.347 21.5661 100.891 21.9021C101.451 22.2381 102.075 22.4061 102.763 22.4061Z" fill="#67696E"/>
<path d="M112.12 24.9981V6.83008H115.264V14.5101L114.832 14.0541C115.136 13.2701 115.632 12.6781 116.32 12.2781C117.024 11.8621 117.84 11.6541 118.768 11.6541C119.728 11.6541 120.576 11.8621 121.312 12.2781C122.064 12.6941 122.648 13.2781 123.064 14.0301C123.48 14.7661 123.688 15.6221 123.688 16.5981V24.9981H120.544V17.3421C120.544 16.7661 120.432 16.2701 120.208 15.8541C119.984 15.4381 119.672 15.1181 119.272 14.8941C118.888 14.6541 118.432 14.5341 117.904 14.5341C117.392 14.5341 116.936 14.6541 116.536 14.8941C116.136 15.1181 115.824 15.4381 115.6 15.8541C115.376 16.2701 115.264 16.7661 115.264 17.3421V24.9981H112.12Z" fill="#67696E"/>
<path d="M130.306 25.2861C129.394 25.2861 128.602 25.1341 127.93 24.8301C127.258 24.5261 126.738 24.0941 126.37 23.5341C126.002 22.9581 125.818 22.2941 125.818 21.5421C125.818 20.8221 125.978 20.1821 126.298 19.6221C126.618 19.0461 127.114 18.5661 127.786 18.1821C128.458 17.7981 129.306 17.5261 130.33 17.3661L134.602 16.6701V19.0701L130.93 19.6941C130.306 19.8061 129.842 20.0061 129.538 20.2941C129.234 20.5821 129.082 20.9581 129.082 21.4221C129.082 21.8701 129.25 22.2301 129.586 22.5021C129.938 22.7581 130.37 22.8861 130.882 22.8861C131.538 22.8861 132.114 22.7501 132.61 22.4781C133.122 22.1901 133.514 21.7981 133.786 21.3021C134.074 20.8061 134.218 20.2621 134.218 19.6701V16.3101C134.218 15.7501 133.994 15.2861 133.546 14.9181C133.114 14.5341 132.538 14.3421 131.818 14.3421C131.146 14.3421 130.546 14.5261 130.018 14.8941C129.506 15.2461 129.13 15.7181 128.89 16.3101L126.322 15.0621C126.578 14.3741 126.978 13.7821 127.522 13.2861C128.082 12.7741 128.738 12.3741 129.49 12.0861C130.242 11.7981 131.058 11.6541 131.938 11.6541C133.01 11.6541 133.954 11.8541 134.77 12.2541C135.586 12.6381 136.218 13.1821 136.666 13.8861C137.13 14.5741 137.362 15.3821 137.362 16.3101V24.9981H134.386V22.7661L135.058 22.7181C134.722 23.2781 134.322 23.7501 133.858 24.1341C133.394 24.5021 132.866 24.7901 132.274 24.9981C131.682 25.1901 131.026 25.2861 130.306 25.2861Z" fill="#67696E"/>
</svg>
