<svg width="198" height="32" viewBox="0 0 198 32" fill="none" xmlns="http://www.w3.org/2000/svg">
<path fill-rule="evenodd" clip-rule="evenodd" d="M16 32C24.8366 32 32 24.8366 32 16C32 7.16345 24.8366 0 16 0C7.16344 0 0 7.16345 0 16C0 24.8366 7.16344 32 16 32ZM18.4696 12.3621C19.8334 10.9981 19.8334 8.78686 18.4696 7.42293C17.1057 6.05903 14.8944 6.05903 13.5305 7.42293C12.1666 8.78686 12.1666 10.9981 13.5305 12.3621L16 14.8316L18.4696 12.3621ZM19.638 18.4696C21.0019 19.8335 23.2132 19.8335 24.5771 18.4696C25.941 17.1057 25.941 14.8944 24.5771 13.5305C23.2132 12.1666 21.0019 12.1666 19.638 13.5305L17.1685 16.0001L19.638 18.4696ZM18.4696 24.5771C19.8334 23.2132 19.8334 21.0019 18.4696 19.638L16 17.1685L13.5305 19.638C12.1666 21.0019 12.1666 23.2132 13.5305 24.5771C14.8944 25.941 17.1057 25.941 18.4696 24.5771ZM7.42291 18.4696C6.05904 17.1057 6.05904 14.8944 7.42291 13.5305C8.78686 12.1666 10.9981 12.1666 12.3621 13.5305L14.8316 16.0001L12.3621 18.4696C10.9981 19.8335 8.78686 19.8335 7.42291 18.4696Z" fill="#67696E"/>
<path d="M46.2266 26V8.70312H52.8828C54.5 8.70312 55.75 8.86719 56.6328 9.19531C57.5234 9.52344 58.1406 10.0234 58.4844 10.6953C58.8359 11.3594 59.0117 12.2109 59.0117 13.25C59.0117 14.1328 58.8672 14.8516 58.5781 15.4062C58.2891 15.9609 57.6953 16.3516 56.7969 16.5781C57.5938 16.6875 58.2031 16.9297 58.625 17.3047C59.0547 17.6719 59.3477 18.1484 59.5039 18.7344C59.668 19.3203 59.75 19.9922 59.75 20.75C59.75 22.5625 59.2812 23.8906 58.3438 24.7344C57.4141 25.5781 55.875 26 53.7266 26H46.2266ZM49.707 15.6641H53.3047C53.9844 15.6641 54.4727 15.5742 54.7695 15.3945C55.0742 15.2148 55.2656 14.9492 55.3438 14.5977C55.4219 14.2383 55.4609 13.8008 55.4609 13.2852C55.4609 12.6758 55.3906 12.2148 55.25 11.9023C55.1094 11.582 54.8398 11.3672 54.4414 11.2578C54.043 11.1406 53.4492 11.082 52.6602 11.082H49.707V15.6641ZM49.707 23.5625H53.082C53.9883 23.5625 54.668 23.4883 55.1211 23.3398C55.582 23.1914 55.8906 22.9102 56.0469 22.4961C56.2031 22.0742 56.2812 21.4648 56.2812 20.668C56.2812 20.0898 56.2227 19.5859 56.1055 19.1562C55.9961 18.7188 55.7383 18.3789 55.332 18.1367C54.9336 17.8867 54.3008 17.7617 53.4336 17.7617H49.707V23.5625Z" fill="#67696E"/>
<path d="M63.2891 26V8.70312H70.7539C72.2852 8.70312 73.4688 8.91797 74.3047 9.34766C75.1406 9.77734 75.7188 10.3789 76.0391 11.1523C76.3672 11.9258 76.5312 12.832 76.5312 13.8711C76.5312 14.582 76.4648 15.25 76.332 15.875C76.207 16.4922 75.9609 17.0391 75.5938 17.5156C75.2266 17.9922 74.6914 18.375 73.9883 18.6641L77.3281 26H73.7188L70.6836 19.168H66.7695V26H63.2891ZM66.7695 16.6836H71.0469C71.6406 16.6836 72.0898 16.5664 72.3945 16.332C72.707 16.0898 72.918 15.7695 73.0273 15.3711C73.1445 14.9648 73.2031 14.5156 73.2031 14.0234C73.2031 13.5547 73.1523 13.1016 73.0508 12.6641C72.957 12.2266 72.7656 11.8711 72.4766 11.5977C72.1953 11.3164 71.7656 11.1758 71.1875 11.1758H66.7695V16.6836Z" fill="#67696E"/>
<path d="M84.3711 19.3555L78.4062 8.70312H82.0742L86.1289 16.1328L90.1719 8.70312H93.6875L87.8398 19.3555V26H84.3711V19.3555Z" fill="#67696E"/>
<path d="M102.828 26.3047C101.289 26.3047 100.039 26.1562 99.0781 25.8594C98.125 25.5547 97.3945 25.1328 96.8867 24.5938C96.3789 24.0547 96.0312 23.4219 95.8438 22.6953C95.6562 21.9688 95.5625 21.1797 95.5625 20.3281V14.5508C95.5625 13.6758 95.6523 12.8672 95.832 12.125C96.0195 11.375 96.3633 10.7227 96.8633 10.168C97.3711 9.61328 98.1055 9.18359 99.0664 8.87891C100.027 8.56641 101.281 8.41016 102.828 8.41016C104.305 8.41016 105.492 8.5625 106.391 8.86719C107.297 9.16406 107.984 9.58594 108.453 10.1328C108.922 10.6797 109.238 11.3242 109.402 12.0664C109.566 12.8008 109.648 13.6055 109.648 14.4805V14.6914L106.238 15.0898V14.2109C106.238 13.3984 106.137 12.7734 105.934 12.3359C105.73 11.8906 105.383 11.582 104.891 11.4102C104.398 11.2305 103.711 11.1406 102.828 11.1406C101.539 11.1406 100.586 11.3438 99.9688 11.75C99.3516 12.1562 99.043 12.9531 99.043 14.1406V20.6797C99.043 21.4688 99.1797 22.0742 99.4531 22.4961C99.7266 22.9102 100.141 23.1953 100.695 23.3516C101.258 23.5 101.973 23.5742 102.84 23.5742C103.723 23.5742 104.41 23.5 104.902 23.3516C105.395 23.1953 105.738 22.9062 105.934 22.4844C106.137 22.0547 106.238 21.4297 106.238 20.6094V20.0586H109.648V20.375C109.648 21.2266 109.57 22.0117 109.414 22.7305C109.258 23.4492 108.949 24.0781 108.488 24.6172C108.027 25.1484 107.344 25.5625 106.438 25.8594C105.531 26.1562 104.328 26.3047 102.828 26.3047Z" fill="#67696E"/>
<path d="M113.375 26V8.70312H120.84C122.371 8.70312 123.555 8.91797 124.391 9.34766C125.227 9.77734 125.805 10.3789 126.125 11.1523C126.453 11.9258 126.617 12.832 126.617 13.8711C126.617 14.582 126.551 15.25 126.418 15.875C126.293 16.4922 126.047 17.0391 125.68 17.5156C125.312 17.9922 124.777 18.375 124.074 18.6641L127.414 26H123.805L120.77 19.168H116.855V26H113.375ZM116.855 16.6836H121.133C121.727 16.6836 122.176 16.5664 122.48 16.332C122.793 16.0898 123.004 15.7695 123.113 15.3711C123.23 14.9648 123.289 14.5156 123.289 14.0234C123.289 13.5547 123.238 13.1016 123.137 12.6641C123.043 12.2266 122.852 11.8711 122.562 11.5977C122.281 11.3164 121.852 11.1758 121.273 11.1758H116.855V16.6836Z" fill="#67696E"/>
<path d="M134.457 19.3555L128.492 8.70312H132.16L136.215 16.1328L140.258 8.70312H143.773L137.926 19.3555V26H134.457V19.3555Z" fill="#67696E"/>
<path d="M146.059 22.6719H149.551V26H146.059V22.6719Z" fill="#67696E"/>
<path d="M157.566 26V11.3516H152.75V8.70312H165.852V11.3516H161.035V26H157.566Z" fill="#67696E"/>
<path d="M168.523 8.70312H179.855V11.3281H171.992V15.9219H178.965V18.4297H171.992V23.375H179.984V26H168.523V8.70312Z" fill="#67696E"/>
<path d="M190.602 26.3047C189.062 26.3047 187.812 26.1562 186.852 25.8594C185.898 25.5547 185.168 25.1328 184.66 24.5938C184.152 24.0547 183.805 23.4219 183.617 22.6953C183.43 21.9688 183.336 21.1797 183.336 20.3281V14.5508C183.336 13.6758 183.426 12.8672 183.605 12.125C183.793 11.375 184.137 10.7227 184.637 10.168C185.145 9.61328 185.879 9.18359 186.84 8.87891C187.801 8.56641 189.055 8.41016 190.602 8.41016C192.078 8.41016 193.266 8.5625 194.164 8.86719C195.07 9.16406 195.758 9.58594 196.227 10.1328C196.695 10.6797 197.012 11.3242 197.176 12.0664C197.34 12.8008 197.422 13.6055 197.422 14.4805V14.6914L194.012 15.0898V14.2109C194.012 13.3984 193.91 12.7734 193.707 12.3359C193.504 11.8906 193.156 11.582 192.664 11.4102C192.172 11.2305 191.484 11.1406 190.602 11.1406C189.312 11.1406 188.359 11.3438 187.742 11.75C187.125 12.1562 186.816 12.9531 186.816 14.1406V20.6797C186.816 21.4688 186.953 22.0742 187.227 22.4961C187.5 22.9102 187.914 23.1953 188.469 23.3516C189.031 23.5 189.746 23.5742 190.613 23.5742C191.496 23.5742 192.184 23.5 192.676 23.3516C193.168 23.1953 193.512 22.9062 193.707 22.4844C193.91 22.0547 194.012 21.4297 194.012 20.6094V20.0586H197.422V20.375C197.422 21.2266 197.344 22.0117 197.188 22.7305C197.031 23.4492 196.723 24.0781 196.262 24.6172C195.801 25.1484 195.117 25.5625 194.211 25.8594C193.305 26.1562 192.102 26.3047 190.602 26.3047Z" fill="#67696E"/>
</svg>
