<svg id="wp-event-manager-google-maps" xmlns="http://www.w3.org/2000/svg" width="200" height="200" viewBox="0 0 200 200">
  <g id="_1791966652416" transform="translate(27.075 32.332)">
    <rect id="Rectangle_909" data-name="Rectangle 909" width="129.393" height="115.495" rx="10" transform="translate(2.066 2.523)" fill="#fff"/>
    <rect id="Rectangle_910" data-name="Rectangle 910" width="86.655" height="18.202" transform="translate(42.889 3.703)" fill="#1f98f9"/>
    <path id="Path_5965" data-name="Path 5965" d="M489.209,434.64H372.7a8.744,8.744,0,0,0-8.734,8.733V545.99a8.744,8.744,0,0,0,8.734,8.734h116.5a8.743,8.743,0,0,0,8.733-8.734V443.373A8.742,8.742,0,0,0,489.209,434.64ZM369.2,443.373a3.5,3.5,0,0,1,3.5-3.5h116.5a3.5,3.5,0,0,1,3.5,3.5v11.053H369.2Zm123.5,102.617a3.5,3.5,0,0,1-3.5,3.5H372.7a3.5,3.5,0,0,1-3.5-3.5V459.658h123.5Z" transform="translate(-363.97 -434.64)" fill-rule="evenodd"/>
    <path id="Path_5966" data-name="Path 5966" d="M1593.339,568.04h-25.162a2.617,2.617,0,0,0,0,5.233h25.162a2.617,2.617,0,0,0,0-5.233Z" transform="translate(-1476.176 -558.117)" fill-rule="evenodd"/>
    <path id="Path_5967" data-name="Path 5967" d="M678.033,570.152a2.621,2.621,0,0,0-.149-.49,2.69,2.69,0,0,0-.241-.452,2.629,2.629,0,0,0-.324-.4,2.629,2.629,0,0,0-.85-.565,2.658,2.658,0,0,0-.49-.15,2.6,2.6,0,0,0-1.023,0,2.658,2.658,0,0,0-.489.15,2.688,2.688,0,0,0-.452.24,2.638,2.638,0,0,0-.4.324,2.46,2.46,0,0,0-.324.4,2.636,2.636,0,0,0-.39.942,2.569,2.569,0,0,0-.053.51,2.6,2.6,0,0,0,.053.513,2.777,2.777,0,0,0,.149.489,2.642,2.642,0,0,0,.241.45,2.46,2.46,0,0,0,.324.4,2.767,2.767,0,0,0,.4.327,2.866,2.866,0,0,0,.452.241,2.712,2.712,0,0,0,.489.149,2.651,2.651,0,0,0,1.023,0,2.7,2.7,0,0,0,.49-.149,2.866,2.866,0,0,0,.452-.241,2.94,2.94,0,0,0,.4-.327,2.673,2.673,0,0,0,.565-.848,2.722,2.722,0,0,0,.149-.489,2.593,2.593,0,0,0,.051-.513A2.562,2.562,0,0,0,678.033,570.152Z" transform="translate(-649.873 -558.124)" fill-rule="evenodd"/>
    <path id="Path_5968" data-name="Path 5968" d="M807.87,570.152a2.459,2.459,0,0,0-.149-.49,2.578,2.578,0,0,0-.241-.452,2.457,2.457,0,0,0-.324-.4,2.628,2.628,0,0,0-.85-.565,2.658,2.658,0,0,0-.49-.15,2.59,2.59,0,0,0-1.021,0,2.633,2.633,0,0,0-.489.15,2.615,2.615,0,0,0-1.565,1.9,2.624,2.624,0,0,0-.052.51,2.673,2.673,0,0,0,.052.513,2.608,2.608,0,0,0,.39.939,2.592,2.592,0,0,0,.722.725,2.66,2.66,0,0,0,.453.241,2.687,2.687,0,0,0,.489.149,2.639,2.639,0,0,0,1.021,0,2.713,2.713,0,0,0,.49-.149,2.657,2.657,0,0,0,.452-.241,2.593,2.593,0,0,0,.722-.725,2.642,2.642,0,0,0,.241-.45,2.546,2.546,0,0,0,.149-.489,2.613,2.613,0,0,0,.053-.513A2.564,2.564,0,0,0,807.87,570.152Z" transform="translate(-770.055 -558.124)" fill-rule="evenodd"/>
    <path id="Path_5969" data-name="Path 5969" d="M548.24,570.158a2.621,2.621,0,0,0-.149-.489,2.582,2.582,0,0,0-.241-.452,2.494,2.494,0,0,0-.324-.4,2.638,2.638,0,0,0-2.362-.714,2.771,2.771,0,0,0-.49.15,2.589,2.589,0,0,0-.45.24,2.539,2.539,0,0,0-.4.324,2.694,2.694,0,0,0-.327.4,2.628,2.628,0,0,0-.24.452,2.669,2.669,0,0,0-.15.489,2.617,2.617,0,1,0,5.184.51A2.565,2.565,0,0,0,548.24,570.158Z" transform="translate(-529.738 -558.13)" fill-rule="evenodd"/>
    <g id="Group_1920" data-name="Group 1920" transform="translate(17.374 6.861)">
      <path id="Path_5970" data-name="Path 5970" d="M621.96,594.97v64.355l2.134,11.246,3.694,5.089,9.44,3.612h96.335L741.887,675l4.925-11v-73.22l-11.9-8.538-7.388,1.643-5.5,6.895v11.9H695.592l8.784-16.006,2.546-8.947-1.355-8.7-3.816-7.881-8.086-5.212-9.111-2.3-7.963,1.724-8.5,4.843-4.146,7.183-1.805,7.716.123,7.223,10.261,20.193H647.581l.075-9.522-5.828-9.685-8.7-1.314-7.632,6.074Z" transform="translate(-620.143 -551.649)" fill="#fff" fill-rule="evenodd"/>
      <g id="Group_1919" data-name="Group 1919">
        <path id="Path_5971" data-name="Path 5971" d="M959.33,1207.475v15.575l32.376,29.751-31.5,28.876h22.576l29.4-29.4h20.475v-14.7H998.181L965.806,1207.3Z" transform="translate(-932.417 -1156.684)" fill="#1f98f9" fill-rule="evenodd"/>
        <path id="Path_5972" data-name="Path 5972" d="M710.95,554.974a15.052,15.052,0,0,0-15.056,15.055v5.019H677.748c6.047-10.341,9.112-18.1,9.112-23.086a25.093,25.093,0,0,0-50.186,0c0,4.989,3.065,12.746,9.112,23.086H627.641V570.03a15.055,15.055,0,1,0-30.111,0v14.052a2.509,2.509,0,0,0,5.018,0V570.03a10.037,10.037,0,1,1,20.074,0v59.048a15.025,15.025,0,0,0-20.074,0V604.156a2.509,2.509,0,0,0-5.018,0V640.29c0,8.609,7.431,15.055,15.771,15.055H710.95a15.072,15.072,0,0,0,15.056-15.055V570.03a15.073,15.073,0,0,0-15.056-15.056h0ZM700.913,570.03a10.037,10.037,0,1,1,20.074,0v58.979a14.667,14.667,0,0,0-6.068-3.263,15.141,15.141,0,0,0-14.007,3.32V570.03h0Zm-5.019,35.13H663.775c-8.409-8.007-24.469-23.3-26.346-25.092h11.4c5.478,8.751,10.874,15.982,10.93,16.057a2.51,2.51,0,0,0,4.018,0c.056-.075,5.453-7.306,10.931-16.057h21.186Zm-34.126-73.271a20.1,20.1,0,0,1,20.074,20.074c0,9.317-14.7,30.862-20.074,38.39-5.462-7.648-20.074-29.159-20.074-38.39A20.1,20.1,0,0,1,661.768,531.889Zm-59.219,108.4a10.037,10.037,0,1,1,20.074,0,2.509,2.509,0,0,0,5.019,0V598.468l25.469,24.257-28.982,27.6H613.3c-5.627,0-10.753-4.206-10.753-10.037Zm55.931-15.748a2.508,2.508,0,0,0,0-3.635l-30.837-29.369V580.067h2.509c.172.164,29.695,28.281,30.891,29.419a2.506,2.506,0,0,0,1.729.693h33.123v10.037h-19.07a2.509,2.509,0,0,0-1.774.735l-29.377,29.377H631.405Zm52.471,25.785H652.77l25.093-25.093h18.03V640.29a2.51,2.51,0,0,0,5.019,0,10.062,10.062,0,0,1,12.752-9.685,9.882,9.882,0,0,1,7.322,9.685,10.049,10.049,0,0,1-10.037,10.037ZM710.95,650.327Z" transform="translate(-597.53 -526.87)" fill-rule="evenodd"/>
        <path id="Path_5973" data-name="Path 5973" d="M1304.966,720.623a12.547,12.547,0,1,0-12.546-12.547A12.561,12.561,0,0,0,1304.966,720.623Zm0-20.074c9.9,0,9.9,15.055,0,15.055S1295.067,700.549,1304.966,700.549Z" transform="translate(-1240.729 -682.984)" fill-rule="evenodd"/>
        <path id="Path_16682" data-name="Path 16682" d="M8.873,0A8.873,8.873,0,1,1,0,8.873,8.873,8.873,0,0,1,8.873,0Z" transform="translate(55.37 16.225)" fill="#1f98f9"/>
        <path id="Path_5974" data-name="Path 5974" d="M600.039,1402.189a2.509,2.509,0,1,0-2.509-2.51A2.511,2.511,0,0,0,600.039,1402.189ZM600.039,1402.189Z" transform="translate(-597.53 -1332.43)" fill-rule="evenodd"/>
      </g>
    </g>
  </g>
  <rect id="Rectangle_911" data-name="Rectangle 911" width="200" height="200" fill="none"/>
</svg>
