<svg width="127" height="31" viewBox="0 0 127 31" fill="none" xmlns="http://www.w3.org/2000/svg">
<path d="M13.4508 5.15137V0.901367H0.0507812V30.1014H13.4508V25.8514C10.7058 25.8514 8.07318 24.7609 6.13222 22.8199C4.19122 20.8789 3.10078 18.2464 3.10078 15.5014C3.10078 12.7564 4.19122 10.1238 6.13222 8.18282C8.07318 6.24182 10.7058 5.15137 13.4508 5.15137Z" fill="#67696E"/>
<path d="M13.4492 5.15137V25.8514C16.1942 25.8514 18.8268 24.7609 20.7678 22.8199C22.7088 20.8789 23.7992 18.2464 23.7992 15.5014C23.7992 12.7564 22.7088 10.1238 20.7678 8.18282C18.8268 6.24182 16.1942 5.15137 13.4492 5.15137Z" fill="#67696E"/>
<path d="M124.2 11.2398C125.415 11.2398 126.4 10.2548 126.4 9.03984C126.4 7.82484 125.415 6.83984 124.2 6.83984C122.985 6.83984 122 7.82484 122 9.03984C122 10.2548 122.985 11.2398 124.2 11.2398Z" fill="#67696E"/>
<path d="M37.6758 19.9395L41.6953 6.43945H45.6094L39.668 23.502H37.0898L37.6758 19.9395ZM33.9727 6.43945L37.9805 19.9395L38.5898 23.502H35.9883L30.082 6.43945H33.9727Z" fill="#67696E"/>
<path d="M53.2969 20.6426V14.9941C53.2969 14.5879 53.2305 14.2402 53.0977 13.9512C52.9648 13.6543 52.7578 13.4238 52.4766 13.2598C52.2031 13.0957 51.8477 13.0137 51.4102 13.0137C51.0352 13.0137 50.7109 13.0801 50.4375 13.2129C50.1641 13.3379 49.9531 13.5215 49.8047 13.7637C49.6562 13.998 49.582 14.2754 49.582 14.5957H46.207C46.207 14.0566 46.332 13.5449 46.582 13.0605C46.832 12.5762 47.1953 12.1504 47.6719 11.7832C48.1484 11.4082 48.7148 11.1152 49.3711 10.9043C50.0352 10.6934 50.7773 10.5879 51.5977 10.5879C52.582 10.5879 53.457 10.752 54.2227 11.0801C54.9883 11.4082 55.5898 11.9004 56.0273 12.5566C56.4727 13.2129 56.6953 14.0332 56.6953 15.0176V20.4434C56.6953 21.1387 56.7383 21.709 56.8242 22.1543C56.9102 22.5918 57.0352 22.9746 57.1992 23.3027V23.502H53.7891C53.625 23.1582 53.5 22.7285 53.4141 22.2129C53.3359 21.6895 53.2969 21.166 53.2969 20.6426ZM53.7422 15.7793L53.7656 17.6895H51.8789C51.4336 17.6895 51.0469 17.7402 50.7188 17.8418C50.3906 17.9434 50.1211 18.0879 49.9102 18.2754C49.6992 18.4551 49.543 18.666 49.4414 18.9082C49.3477 19.1504 49.3008 19.416 49.3008 19.7051C49.3008 19.9941 49.3672 20.2559 49.5 20.4902C49.6328 20.7168 49.8242 20.8965 50.0742 21.0293C50.3242 21.1543 50.6172 21.2168 50.9531 21.2168C51.4609 21.2168 51.9023 21.1152 52.2773 20.9121C52.6523 20.709 52.9414 20.459 53.1445 20.1621C53.3555 19.8652 53.4648 19.584 53.4727 19.3184L54.3633 20.748C54.2383 21.0684 54.0664 21.4004 53.8477 21.7441C53.6367 22.0879 53.3672 22.4121 53.0391 22.7168C52.7109 23.0137 52.3164 23.2598 51.8555 23.4551C51.3945 23.6426 50.8477 23.7363 50.2148 23.7363C49.4102 23.7363 48.6797 23.5762 48.0234 23.2559C47.375 22.9277 46.8594 22.4785 46.4766 21.9082C46.1016 21.3301 45.9141 20.6738 45.9141 19.9395C45.9141 19.2754 46.0391 18.6855 46.2891 18.1699C46.5391 17.6543 46.9062 17.2207 47.3906 16.8691C47.8828 16.5098 48.4961 16.2402 49.2305 16.0605C49.9648 15.873 50.8164 15.7793 51.7852 15.7793H53.7422Z" fill="#67696E"/>
<path d="M62.6016 13.5293V23.502H59.2266V10.8223H62.3906L62.6016 13.5293ZM62.1094 16.7168H61.1953C61.1953 15.7793 61.3164 14.9355 61.5586 14.1855C61.8008 13.4277 62.1406 12.7832 62.5781 12.252C63.0156 11.7129 63.5352 11.3027 64.1367 11.0215C64.7461 10.7324 65.4258 10.5879 66.1758 10.5879C66.7695 10.5879 67.3125 10.6738 67.8047 10.8457C68.2969 11.0176 68.7188 11.291 69.0703 11.666C69.4297 12.041 69.7031 12.5371 69.8906 13.1543C70.0859 13.7715 70.1836 14.5254 70.1836 15.416V23.502H66.7852V15.4043C66.7852 14.8418 66.707 14.4043 66.5508 14.0918C66.3945 13.7793 66.1641 13.5605 65.8594 13.4355C65.5625 13.3027 65.1953 13.2363 64.7578 13.2363C64.3047 13.2363 63.9102 13.3262 63.5742 13.5059C63.2461 13.6855 62.9727 13.9355 62.7539 14.2559C62.543 14.5684 62.3828 14.9355 62.2734 15.3574C62.1641 15.7793 62.1094 16.2324 62.1094 16.7168Z" fill="#67696E"/>
<path d="M77.0508 23.502H73.6523V9.69727C73.6523 8.73633 73.8398 7.92773 74.2148 7.27148C74.5977 6.60742 75.1328 6.10742 75.8203 5.77148C76.5156 5.42773 77.3398 5.25586 78.293 5.25586C78.6055 5.25586 78.9062 5.2793 79.1953 5.32617C79.4844 5.36523 79.7656 5.41602 80.0391 5.47852L80.0039 8.02148C79.8555 7.98242 79.6992 7.95508 79.5352 7.93945C79.3711 7.92383 79.1797 7.91602 78.9609 7.91602C78.5547 7.91602 78.207 7.98633 77.918 8.12695C77.6367 8.25977 77.4219 8.45898 77.2734 8.72461C77.125 8.99023 77.0508 9.31445 77.0508 9.69727V23.502ZM79.582 10.8223V13.2129H71.7656V10.8223H79.582Z" fill="#67696E"/>
<path d="M88.1953 20.6426V14.9941C88.1953 14.5879 88.1289 14.2402 87.9961 13.9512C87.8633 13.6543 87.6562 13.4238 87.375 13.2598C87.1016 13.0957 86.7461 13.0137 86.3086 13.0137C85.9336 13.0137 85.6094 13.0801 85.3359 13.2129C85.0625 13.3379 84.8516 13.5215 84.7031 13.7637C84.5547 13.998 84.4805 14.2754 84.4805 14.5957H81.1055C81.1055 14.0566 81.2305 13.5449 81.4805 13.0605C81.7305 12.5762 82.0938 12.1504 82.5703 11.7832C83.0469 11.4082 83.6133 11.1152 84.2695 10.9043C84.9336 10.6934 85.6758 10.5879 86.4961 10.5879C87.4805 10.5879 88.3555 10.752 89.1211 11.0801C89.8867 11.4082 90.4883 11.9004 90.9258 12.5566C91.3711 13.2129 91.5938 14.0332 91.5938 15.0176V20.4434C91.5938 21.1387 91.6367 21.709 91.7227 22.1543C91.8086 22.5918 91.9336 22.9746 92.0977 23.3027V23.502H88.6875C88.5234 23.1582 88.3984 22.7285 88.3125 22.2129C88.2344 21.6895 88.1953 21.166 88.1953 20.6426ZM88.6406 15.7793L88.6641 17.6895H86.7773C86.332 17.6895 85.9453 17.7402 85.6172 17.8418C85.2891 17.9434 85.0195 18.0879 84.8086 18.2754C84.5977 18.4551 84.4414 18.666 84.3398 18.9082C84.2461 19.1504 84.1992 19.416 84.1992 19.7051C84.1992 19.9941 84.2656 20.2559 84.3984 20.4902C84.5312 20.7168 84.7227 20.8965 84.9727 21.0293C85.2227 21.1543 85.5156 21.2168 85.8516 21.2168C86.3594 21.2168 86.8008 21.1152 87.1758 20.9121C87.5508 20.709 87.8398 20.459 88.043 20.1621C88.2539 19.8652 88.3633 19.584 88.3711 19.3184L89.2617 20.748C89.1367 21.0684 88.9648 21.4004 88.7461 21.7441C88.5352 22.0879 88.2656 22.4121 87.9375 22.7168C87.6094 23.0137 87.2148 23.2598 86.7539 23.4551C86.293 23.6426 85.7461 23.7363 85.1133 23.7363C84.3086 23.7363 83.5781 23.5762 82.9219 23.2559C82.2734 22.9277 81.7578 22.4785 81.375 21.9082C81 21.3301 80.8125 20.6738 80.8125 19.9395C80.8125 19.2754 80.9375 18.6855 81.1875 18.1699C81.4375 17.6543 81.8047 17.2207 82.2891 16.8691C82.7812 16.5098 83.3945 16.2402 84.1289 16.0605C84.8633 15.873 85.7148 15.7793 86.6836 15.7793H88.6406Z" fill="#67696E"/>
<path d="M94.1953 5.50195H97.5703V20.5957L97.2305 23.502H94.1953V5.50195ZM105.598 17.0332V17.2793C105.598 18.2246 105.496 19.0918 105.293 19.8809C105.098 20.6699 104.793 21.3535 104.379 21.9316C103.965 22.502 103.449 22.9473 102.832 23.2676C102.223 23.5801 101.504 23.7363 100.676 23.7363C99.9023 23.7363 99.2305 23.5801 98.6602 23.2676C98.0977 22.9551 97.625 22.5137 97.2422 21.9434C96.8594 21.373 96.5508 20.7051 96.3164 19.9395C96.082 19.1738 95.9062 18.3379 95.7891 17.4316V16.8926C95.9062 15.9863 96.082 15.1504 96.3164 14.3848C96.5508 13.6191 96.8594 12.9512 97.2422 12.3809C97.625 11.8105 98.0977 11.3691 98.6602 11.0566C99.2227 10.7441 99.8867 10.5879 100.652 10.5879C101.488 10.5879 102.215 10.748 102.832 11.0684C103.457 11.3809 103.973 11.8262 104.379 12.4043C104.793 12.9746 105.098 13.6543 105.293 14.4434C105.496 15.2246 105.598 16.0879 105.598 17.0332ZM102.223 17.2793V17.0332C102.223 16.5176 102.184 16.0332 102.105 15.5801C102.035 15.1191 101.91 14.7168 101.73 14.373C101.551 14.0215 101.305 13.7441 100.992 13.541C100.688 13.3379 100.293 13.2363 99.8086 13.2363C99.3477 13.2363 98.957 13.3145 98.6367 13.4707C98.3164 13.627 98.0508 13.8457 97.8398 14.127C97.6367 14.4082 97.4844 14.7441 97.3828 15.1348C97.2812 15.5176 97.2188 15.9395 97.1953 16.4004V17.9355C97.2188 18.5527 97.3203 19.0996 97.5 19.5762C97.6875 20.0449 97.9688 20.416 98.3438 20.6895C98.7266 20.9551 99.2227 21.0879 99.832 21.0879C100.309 21.0879 100.703 20.9941 101.016 20.8066C101.328 20.6191 101.57 20.3535 101.742 20.0098C101.922 19.666 102.047 19.2637 102.117 18.8027C102.188 18.334 102.223 17.8262 102.223 17.2793Z" fill="#67696E"/>
<path d="M114.539 20.6426V14.9941C114.539 14.5879 114.473 14.2402 114.34 13.9512C114.207 13.6543 114 13.4238 113.719 13.2598C113.445 13.0957 113.09 13.0137 112.652 13.0137C112.277 13.0137 111.953 13.0801 111.68 13.2129C111.406 13.3379 111.195 13.5215 111.047 13.7637C110.898 13.998 110.824 14.2754 110.824 14.5957H107.449C107.449 14.0566 107.574 13.5449 107.824 13.0605C108.074 12.5762 108.438 12.1504 108.914 11.7832C109.391 11.4082 109.957 11.1152 110.613 10.9043C111.277 10.6934 112.02 10.5879 112.84 10.5879C113.824 10.5879 114.699 10.752 115.465 11.0801C116.23 11.4082 116.832 11.9004 117.27 12.5566C117.715 13.2129 117.938 14.0332 117.938 15.0176V20.4434C117.938 21.1387 117.98 21.709 118.066 22.1543C118.152 22.5918 118.277 22.9746 118.441 23.3027V23.502H115.031C114.867 23.1582 114.742 22.7285 114.656 22.2129C114.578 21.6895 114.539 21.166 114.539 20.6426ZM114.984 15.7793L115.008 17.6895H113.121C112.676 17.6895 112.289 17.7402 111.961 17.8418C111.633 17.9434 111.363 18.0879 111.152 18.2754C110.941 18.4551 110.785 18.666 110.684 18.9082C110.59 19.1504 110.543 19.416 110.543 19.7051C110.543 19.9941 110.609 20.2559 110.742 20.4902C110.875 20.7168 111.066 20.8965 111.316 21.0293C111.566 21.1543 111.859 21.2168 112.195 21.2168C112.703 21.2168 113.145 21.1152 113.52 20.9121C113.895 20.709 114.184 20.459 114.387 20.1621C114.598 19.8652 114.707 19.584 114.715 19.3184L115.605 20.748C115.48 21.0684 115.309 21.4004 115.09 21.7441C114.879 22.0879 114.609 22.4121 114.281 22.7168C113.953 23.0137 113.559 23.2598 113.098 23.4551C112.637 23.6426 112.09 23.7363 111.457 23.7363C110.652 23.7363 109.922 23.5762 109.266 23.2559C108.617 22.9277 108.102 22.4785 107.719 21.9082C107.344 21.3301 107.156 20.6738 107.156 19.9395C107.156 19.2754 107.281 18.6855 107.531 18.1699C107.781 17.6543 108.148 17.2207 108.633 16.8691C109.125 16.5098 109.738 16.2402 110.473 16.0605C111.207 15.873 112.059 15.7793 113.027 15.7793H114.984Z" fill="#67696E"/>
</svg>
