<?xml version="1.0" standalone="no"?>
<!DOCTYPE svg PUBLIC "-//W3C//DTD SVG 20010904//EN"
 "http://www.w3.org/TR/2001/REC-SVG-20010904/DTD/svg10.dtd">
<svg version="1.0" xmlns="http://www.w3.org/2000/svg"
 width="70.000000pt" height="66.000000pt" viewBox="0 0 70.000000 66.000000"
 preserveAspectRatio="xMidYMid meet">
<metadata>
Created by potrace 1.10, written by Peter Selinger 2001-2011
</metadata>
<g transform="translate(0.000000,66.000000) scale(0.100000,-0.100000)"
fill="#000000" stroke="none">
<path d="M315 530 c-3 -5 -3 -19 0 -30 5 -16 2 -20 -15 -20 -30 0 -100 -38
-100 -54 0 -8 -9 -16 -21 -19 -24 -7 -20 -33 5 -29 10 2 16 -4 16 -18 0 -17
-5 -20 -27 -18 -20 2 -28 -2 -28 -12 0 -9 11 -16 28 -18 27 -3 27 -5 27 -72 0
-105 11 -114 145 -118 173 -6 195 8 195 117 0 69 0 70 28 73 16 2 27 9 27 18
0 9 -11 16 -27 18 -32 4 -39 32 -8 32 11 0 20 5 20 11 0 6 -9 13 -20 16 -11 3
-20 11 -20 18 0 18 -62 55 -92 55 -19 0 -24 5 -23 28 0 26 -3 27 -52 30 -28 2
-54 -2 -58 -8z m83 -37 c2 -9 -7 -13 -27 -13 -30 0 -39 9 -24 24 11 10 46 3
51 -11z m82 -58 c17 -9 30 -19 30 -23 0 -4 -63 -7 -140 -7 -77 0 -140 3 -140
7 0 36 192 53 250 23z m30 -159 c0 -71 -4 -97 -15 -106 -20 -17 -231 -16 -251
1 -10 8 -14 36 -14 105 l0 94 140 0 140 0 0 -94z"/>
</g>
</svg>
